<?xml version="1.0" encoding="UTF-8" standalone="no"?>
<!-- Created with Inkscape (http://www.inkscape.org/) -->

<svg
   width="588.92212"
   height="192"
   viewBox="0 0 588.92212 192"
   version="1.1"
   id="svg1"
   inkscape:version="1.3.2 (091e20ef0f, 2023-11-25)"
   sodipodi:docname="ekege.svg"
   xmlns:inkscape="http://www.inkscape.org/namespaces/inkscape"
   xmlns:sodipodi="http://sodipodi.sourceforge.net/DTD/sodipodi-0.dtd"
   xmlns="http://www.w3.org/2000/svg"
   xmlns:svg="http://www.w3.org/2000/svg">
  <sodipodi:namedview
     id="namedview1"
     pagecolor="#505050"
     bordercolor="#ffffff"
     borderopacity="1"
     inkscape:showpageshadow="0"
     inkscape:pageopacity="0"
     inkscape:pagecheckerboard="1"
     inkscape:deskcolor="#505050"
     inkscape:document-units="px"
     inkscape:zoom="2"
     inkscape:cx="265.75"
     inkscape:cy="66.75"
     inkscape:window-width="1920"
     inkscape:window-height="1011"
     inkscape:window-x="0"
     inkscape:window-y="0"
     inkscape:window-maximized="1"
     inkscape:current-layer="svg1" />
  <defs
     id="defs1" />
  <g
     inkscape:label="Layer 1"
     inkscape:groupmode="layer"
     id="layer1"
     transform="translate(-631.53196,-336.29738)" />
  <g
     id="g391"
     transform="translate(-631.53196,-336.29738)">
    <text
       xml:space="preserve"
       style="font-size:192px;font-family:Madan;-inkscape-font-specification:Madan;letter-spacing:-21.29px;fill:#00a504;stroke-width:56"
       x="821.58173"
       y="482.21738"
       id="text1"><tspan
         sodipodi:role="line"
         id="tspan1"
         x="821.58173"
         y="482.21738"
         style="font-style:italic;font-variant:normal;font-weight:normal;font-stretch:normal;font-family:'Noto Sans';-inkscape-font-specification:'Noto Sans Italic';letter-spacing:-21.29px;fill:#000080">ekege</tspan></text>
    <path
       style="fill:#000080;stroke-width:49.9132"
       id="path390"
       d="m 897.55132,353.57565 c -9.96812,-0.40318 -19.92792,-0.20801 -29.88921,0.74486 -5.82974,0.55768 -11.66518,1.04875 -17.47735,2.12331 -7.18954,1.32921 -14.36049,3.08983 -21.51261,5.08517 -7.7676,2.16706 -15.49185,4.93306 -23.23778,7.39958 -23.96321,8.64141 -47.53712,21.26095 -70.38357,38.33207 -7.31431,5.46532 -14.5187,11.53195 -21.69062,17.72717 -16.56679,14.31062 -20.58788,18.98837 -36.2248,34.90466 -11.88072,12.64769 -23.60337,25.9104 -35.1079,39.92087 -2.21404,2.69629 -4.41537,5.43639 -6.59966,8.231 -1.26472,1.6181 -2.68103,2.87569 -3.7462,5.00563 -0.30639,0.61271 -0.0438,1.7445 -0.0657,2.61675 4.42762,2.45616 8.70531,6.6894 13.28287,7.3685 3.3567,0.49796 6.60151,-2.67349 9.91001,-3.92777 4.90653,-1.86011 9.81362,-3.71894 14.73452,-5.41526 15.08617,-5.20047 26.6542,-8.83935 42.18105,-11.95645 9.09512,-1.82589 18.22339,-2.89027 27.33508,-4.33541 37.14545,-4.42148 74.3973,-4.48124 111.57186,-1.63734 17.87428,1.3674 23.27035,2.27943 40.33752,4.50682 18.14037,2.99396 9.63744,1.39589 25.51483,4.65964 l -6.06453,-9.1143 v 0 c -15.24407,-2.22454 -7.06868,-1.14679 -24.52957,-3.12626 -50.15281,-4.34192 -100.41527,-6.18837 -150.56861,-0.724 -9.28339,1.21248 -18.57745,2.12488 -27.85017,3.63745 -19.99608,3.26176 -24.7558,4.91866 -43.46832,10.18282 -5.14836,1.44832 -10.29187,2.9672 -15.44025,4.41504 -3.52308,0.99075 -7.74602,-1.48063 -10.57406,2.90072 l 4.26884,3.84404 c 2.01132,-3.04976 4.09687,-5.89414 6.18285,-8.72936 10.95367,-14.88792 22.30871,-28.51162 33.84028,-41.46162 14.3311,-15.24712 20.35451,-22.27644 35.53182,-35.71269 29.58087,-26.18749 60.10627,-45.1393 91.96256,-55.90821 7.82218,-2.33581 15.61725,-5.0834 23.46657,-7.00747 23.71585,-5.81333 47.744,-7.50527 71.5677,-3.67378 z"
       sodipodi:nodetypes="cssscsscssscsssscscccsccsssccscscscc" />
  </g>
</svg>
