<svg width="396" height="118" viewBox="0 0 396 118" fill="none" xmlns="http://www.w3.org/2000/svg">
<path d="M180.68 72.616C179.912 77.48 177.48 81.6613 173.384 85.16C169.288 88.5733 163.741 90.28 156.744 90.28C148.723 90.28 142.237 87.7627 137.288 82.728C132.339 77.6933 129.864 70.568 129.864 61.352C129.864 52.4773 132.211 45.1813 136.904 39.464C141.597 33.7467 147.955 30.888 155.976 30.888C163.827 30.888 169.8 33.3627 173.896 38.312C177.992 43.2613 180.083 49.1067 180.168 55.848C180.168 58.0667 179.912 60.328 179.4 62.632H139.336C139.848 75.944 145.864 82.6 157.384 82.6C161.907 82.6 165.448 81.5333 168.008 79.4C170.568 77.2667 172.275 74.4507 173.128 70.952L180.68 72.616ZM170.696 55.976C171.123 51.7093 170.099 47.6987 167.624 43.944C165.235 40.1893 161.267 38.312 155.72 38.312C150.429 38.312 146.547 40.0613 144.072 43.56C141.597 47.0587 140.061 51.1973 139.464 55.976H170.696ZM241.317 89H214.437V81.704H223.013L207.397 62.376H197.285V81.704H205.477V89H178.341V81.704H188.197V8.23199H178.085V0.935997H197.285V55.464H207.525L220.581 39.336H211.749V32.04H238.373V39.336H229.669L214.437 58.152L233.253 81.704H241.317V89ZM287.26 72.616C286.492 77.48 284.06 81.6613 279.964 85.16C275.868 88.5733 270.321 90.28 263.324 90.28C255.303 90.28 248.817 87.7627 243.868 82.728C238.919 77.6933 236.444 70.568 236.444 61.352C236.444 52.4773 238.791 45.1813 243.484 39.464C248.177 33.7467 254.535 30.888 262.556 30.888C270.407 30.888 276.38 33.3627 280.476 38.312C284.572 43.2613 286.663 49.1067 286.748 55.848C286.748 58.0667 286.492 60.328 285.98 62.632H245.916C246.428 75.944 252.444 82.6 263.964 82.6C268.487 82.6 272.028 81.5333 274.588 79.4C277.148 77.2667 278.855 74.4507 279.708 70.952L287.26 72.616ZM277.276 55.976C277.703 51.7093 276.679 47.6987 274.204 43.944C271.815 40.1893 267.847 38.312 262.3 38.312C257.009 38.312 253.127 40.0613 250.652 43.56C248.177 47.0587 246.641 51.1973 246.044 55.976H277.276ZM350.713 39.336H341.497V88.232C341.497 97.192 339.022 104.317 334.073 109.608C329.209 114.899 322.34 117.544 313.465 117.544C307.492 117.544 302.116 116.179 297.337 113.448C292.644 110.717 289.529 106.493 287.993 100.776L295.161 97.192C296.612 101.629 299.129 104.829 302.713 106.792C306.297 108.84 310.009 109.864 313.849 109.864C319.31 109.864 323.748 107.944 327.161 104.104C330.66 100.349 332.409 94.9307 332.409 87.848V77.352C330.702 80.68 328.228 83.5813 324.985 86.056C321.742 88.5307 317.433 89.768 312.057 89.768C305.316 89.768 299.556 87.3787 294.777 82.6C289.998 77.8213 287.609 70.952 287.609 61.992C287.609 54.3973 289.657 47.3147 293.753 40.744C297.849 34.1733 304.292 30.888 313.081 30.888C322.126 30.888 328.569 34.2587 332.409 41V32.04H350.713V39.336ZM332.409 64.424V54.568C332.409 49.7893 330.745 45.9493 327.417 43.048C324.174 40.0613 320.206 38.568 315.513 38.568C309.113 38.568 304.462 40.872 301.561 45.48C298.745 50.088 297.337 55.3787 297.337 61.352C297.337 68.3493 298.916 73.5547 302.073 76.968C305.316 80.3813 309.284 82.088 313.977 82.088C319.438 82.088 323.833 80.2107 327.161 76.456C330.489 72.7013 332.238 68.6907 332.409 64.424ZM395.75 72.616C394.982 77.48 392.55 81.6613 388.454 85.16C384.358 88.5733 378.811 90.28 371.814 90.28C363.793 90.28 357.307 87.7627 352.358 82.728C347.409 77.6933 344.934 70.568 344.934 61.352C344.934 52.4773 347.281 45.1813 351.974 39.464C356.667 33.7467 363.025 30.888 371.046 30.888C378.897 30.888 384.87 33.3627 388.966 38.312C393.062 43.2613 395.153 49.1067 395.238 55.848C395.238 58.0667 394.982 60.328 394.47 62.632H354.406C354.918 75.944 360.934 82.6 372.454 82.6C376.977 82.6 380.518 81.5333 383.078 79.4C385.638 77.2667 387.345 74.4507 388.198 70.952L395.75 72.616ZM385.766 55.976C386.193 51.7093 385.169 47.6987 382.694 43.944C380.305 40.1893 376.337 38.312 370.79 38.312C365.499 38.312 361.617 40.0613 359.142 43.56C356.667 47.0587 355.131 51.1973 354.534 55.976H385.766Z" fill="black"/>
<path fill-rule="evenodd" clip-rule="evenodd" d="M0 31H122V55.0986H104.61L119.842 46.5L96.845 52.7451L105.75 36.6173L90.2865 50.0896L86.5 33L82.7135 50.0896L67.25 36.6173L76.155 52.7451L53.158 46.5L68.39 55.0986H0V31ZM66.6185 65.9014H0V90H122V65.9014H106.381L119.842 73.5L96.845 67.2549L105.75 83.3827L90.2865 69.9104L86.5 87L82.7135 69.9104L67.25 83.3827L76.155 67.2549L53.158 73.5L66.6185 65.9014Z" fill="url(#paint0_linear_0_1)"/>
<defs>
<linearGradient id="paint0_linear_0_1" x1="-22.7048" y1="31" x2="122" y2="31" gradientUnits="userSpaceOnUse">
<stop stop-color="#00F854"/>
<stop offset="0.425" stop-color="#73FFD5"/>
<stop offset="1" stop-color="#0054D1"/>
</linearGradient>
</defs>
</svg>
